<svg xmlns="http://www.w3.org/2000/svg" width="24" height="29.333" viewBox="0 0 24 29.333"><defs><style>.a{fill:#35b3a6;fill-rule:evenodd;}</style></defs><g transform="translate(-3 -1)"><g transform="translate(3 1)"><path class="a" d="M506.275,232a.277.277,0,0,0-.275.28v24.773a.277.277,0,0,0,.275.28h19.45a.277.277,0,0,0,.275-.28V232.28a.277.277,0,0,0-.275-.28Zm1.058,1.333V256h17.333V233.333ZM508.667,236v1.333h14.667V236Zm0,4v1.333h14.667V240Zm0,4v1.333h14.667V244Zm0,4v1.333h14.667V248Zm0,4v1.333H518V252ZM510,230.667h1.333v-1.333h17.333V252h-1.333v1.333H530V228H510Z" transform="translate(-506 -228)"/></g></g></svg>