<svg xmlns="http://www.w3.org/2000/svg" width="30" height="30" viewBox="0 0 30 30"><defs><style>.a{fill:#fbfbfb;fill-rule:evenodd;}</style></defs><g transform="translate(-1)"><g transform="translate(1)"><path class="a" d="M735,185a15,15,0,1,0-15-15A15,15,0,0,0,735,185Zm0-1.3A13.7,13.7,0,1,0,721.3,170,13.7,13.7,0,0,0,735,183.7Zm1.931-10.492.489-10.057-2.98,9.618.643,3.639Zm-11.062-3.856a9.13,9.13,0,0,1,18.261,0h1.3a10.435,10.435,0,0,0-20.87,0h1.3Z" transform="translate(-720 -155)"/></g></g></svg>