<svg xmlns="http://www.w3.org/2000/svg" width="58.842" height="54.5" viewBox="0 0 58.842 54.5"><defs><style>.a{fill:none;stroke:#35b3a6;stroke-linecap:round;stroke-linejoin:round;stroke-miterlimit:10;stroke-width:2px;}</style></defs><g transform="translate(-48 -63.814)"><g transform="translate(49 64.814)"><path class="a" d="M103.507,407.994" transform="translate(-96.023 -360.875)"/><path class="a" d="M111.916,115" transform="translate(-103.278 -108.113)"/><path class="a" d="M73.474,154.9h30.4a1.973,1.973,0,0,1,1.973,1.974v36.185a1.973,1.973,0,0,1-1.973,1.973h-52.9A1.973,1.973,0,0,1,49,193.054V156.869" transform="translate(-49 -142.527)"/><path class="a" d="M49,79.156V66.788a1.974,1.974,0,0,1,1.974-1.974H71.5a1.974,1.974,0,0,1,1.974,1.974V77.182" transform="translate(-49 -64.814)"/></g><path class="a" d="M243,103.371h25.657a1.975,1.975,0,0,1,1.974,1.974v2.369" transform="translate(-167.364 -33.263)"/></g></svg>