<svg xmlns="http://www.w3.org/2000/svg" width="79.584" height="56.5" viewBox="0 0 79.584 56.5"><defs><style>.a{fill:#35b3a6;}</style></defs><g transform="translate(-13.49 -83.84)"><g transform="translate(13.49 83.84)"><g transform="translate(39.73)"><path class="a" d="M288.49,113.262H256.769a1.148,1.148,0,0,1-1.149-1.149V94.46a1.146,1.146,0,0,1,.354-.829l9.886-9.471a1.148,1.148,0,0,1,.794-.32H288.49a1.148,1.148,0,0,1,1.149,1.149v5.64a1.149,1.149,0,1,1-2.3,0V86.136H267.116l-9.2,8.813v16.015h29.424v-13.4a1.149,1.149,0,1,1,2.3,0v14.553A1.148,1.148,0,0,1,288.49,113.262Z" transform="translate(-255.62 -83.84)"/></g><g transform="translate(71.452 9.106)"><path class="a" d="M450.089,141.631a1.17,1.17,0,0,1-.225-.021,1.292,1.292,0,0,1-.215-.066,1.141,1.141,0,0,1-.2-.107.982.982,0,0,1-.176-.143,1.221,1.221,0,0,1-.143-.174,1.149,1.149,0,0,1-.105-.2,1.085,1.085,0,0,1-.066-.215,1.1,1.1,0,0,1,0-.448,1.183,1.183,0,0,1,.171-.413,1.333,1.333,0,0,1,.143-.176,1.15,1.15,0,0,1,.176-.143,1.258,1.258,0,0,1,.2-.105,1.3,1.3,0,0,1,.215-.066,1.152,1.152,0,0,1,.45,0,1.206,1.206,0,0,1,.215.066,1.274,1.274,0,0,1,.2.105,1.125,1.125,0,0,1,.317.318,1.229,1.229,0,0,1,.172.413,1.185,1.185,0,0,1,0,.448,1.085,1.085,0,0,1-.067.215,1.147,1.147,0,0,1-.105.2,1.12,1.12,0,0,1-.143.174,1.032,1.032,0,0,1-.174.143,1.155,1.155,0,0,1-.2.107,1.2,1.2,0,0,1-.215.066A1.145,1.145,0,0,1,450.089,141.631Z" transform="translate(-448.94 -139.335)"/></g><g transform="translate(47.009 7.276)"><path class="a" d="M318.294,144.592H301.129a1.148,1.148,0,0,1-1.149-1.149v-8.815a1.146,1.146,0,0,1,.354-.829l5.531-5.3a1.147,1.147,0,0,1,.794-.32h11.634a1.148,1.148,0,0,1,1.149,1.149v14.115A1.148,1.148,0,0,1,318.294,144.592Zm-16.017-2.3h14.868V130.477H307.121l-4.846,4.642v7.176Z" transform="translate(-299.98 -128.18)"/></g><g transform="translate(39.054 54.203)"><path class="a" d="M252.649,416.467a1.159,1.159,0,0,1-.812-.336,1.234,1.234,0,0,1-.143-.176,1.183,1.183,0,0,1-.171-.413,1.1,1.1,0,0,1,0-.448,1.085,1.085,0,0,1,.066-.215,1.148,1.148,0,0,1,.105-.2,1.224,1.224,0,0,1,.143-.174,1.162,1.162,0,0,1,1.037-.315,1.294,1.294,0,0,1,.215.066,1.159,1.159,0,0,1,.2.107,1.032,1.032,0,0,1,.174.143,1.12,1.12,0,0,1,.143.174,1.146,1.146,0,0,1,.105.2,1.087,1.087,0,0,1,.066.215,1.142,1.142,0,0,1-.313,1.037,1.221,1.221,0,0,1-.174.143,1.276,1.276,0,0,1-.2.105,1.3,1.3,0,0,1-.215.066A1.148,1.148,0,0,1,252.649,416.467Z" transform="translate(-251.5 -414.17)"/></g><g transform="translate(20.225 41.283)"><path class="a" d="M188.843,350.647H160.574a1.149,1.149,0,1,1,0-2.3h28.271a4.974,4.974,0,0,0,4.969-4.969V342.7a4.974,4.974,0,0,0-4.969-4.969H144.016a4.974,4.974,0,0,0-4.969,4.969v.686a4.974,4.974,0,0,0,4.969,4.969h9.373a1.149,1.149,0,1,1,0,2.3h-9.373a7.274,7.274,0,0,1-7.266-7.266V342.7a7.274,7.274,0,0,1,7.266-7.266h44.827a7.274,7.274,0,0,1,7.266,7.266v.686A7.274,7.274,0,0,1,188.843,350.647Z" transform="translate(-136.75 -335.43)"/></g><g transform="translate(23.684 27.125)"><path class="a" d="M206.746,259.922H158.979a1.148,1.148,0,0,1-1.149-1.149v-3.925a1.144,1.144,0,0,1,.343-.819l4.632-4.55a1.147,1.147,0,0,1,.806-.33h43.135a1.148,1.148,0,0,1,1.149,1.149v8.475A1.148,1.148,0,0,1,206.746,259.922Zm-46.619-2.3H205.6v-6.178H164.08l-3.953,3.884Z" transform="translate(-157.83 -249.15)"/></g><g transform="translate(6.926 8.646)"><path class="a" d="M73.606,161.858a1.148,1.148,0,0,1-.8-1.967l3.8-3.728L59.762,139.716a5.981,5.981,0,0,1-1.219,1.482l11.624,13.688a1.149,1.149,0,0,1-1.751,1.488L55.971,141.721a1.149,1.149,0,0,1,.348-1.764,3.6,3.6,0,0,0,1.872-2.5,1.15,1.15,0,0,1,1.931-.6L79.04,155.339a1.149,1.149,0,0,1,0,1.641l-4.632,4.55A1.154,1.154,0,0,1,73.606,161.858Z" transform="translate(-55.699 -136.531)"/></g><g transform="translate(2.648 11.983)"><path class="a" d="M35.088,179.088H31.466a1.15,1.15,0,0,1-1.149-1.109l-.691-19.919a1.148,1.148,0,0,1,1.657-1.07,3.6,3.6,0,0,0,3.175,0,1.149,1.149,0,0,1,1.659,1.022l.118,19.919a1.151,1.151,0,0,1-1.149,1.157Zm-2.512-2.3h1.357l-.1-17.209a6.046,6.046,0,0,1-1.853.01Z" transform="translate(-29.626 -156.87)"/></g><g transform="translate(2.824 31.905)"><path class="a" d="M42.18,291.843H33.358a1.15,1.15,0,0,1-.9-.432l-1.51-1.889a1.149,1.149,0,0,1-.251-.717v-9.378a1.148,1.148,0,0,1,1.149-1.149H37.4a1.148,1.148,0,0,1,1.149,1.149v6.078h1.739l3.231-3.233a1.148,1.148,0,0,1,1.961.812V288.6a1.147,1.147,0,0,1-.348.824l-2.153,2.1A1.15,1.15,0,0,1,42.18,291.843Zm-8.268-2.3h7.8l1.47-1.431v-2.256l-1.606,1.608a1.149,1.149,0,0,1-.812.336H37.4a1.148,1.148,0,0,1-1.149-1.149v-6.078H33V288.4Z" transform="translate(-30.7 -278.28)"/></g><g transform="translate(24.961 45.236)"><path class="a" d="M169.266,366.832a3.656,3.656,0,1,1,3.656-3.656A3.659,3.659,0,0,1,169.266,366.832Zm0-5.014a1.359,1.359,0,1,0,1.359,1.359A1.359,1.359,0,0,0,169.266,361.817Z" transform="translate(-165.61 -359.52)"/><g transform="translate(10.644)"><path class="a" d="M234.136,366.832a3.656,3.656,0,1,1,3.656-3.656A3.659,3.659,0,0,1,234.136,366.832Zm0-5.014a1.359,1.359,0,1,0,1.359,1.359A1.359,1.359,0,0,0,234.136,361.817Z" transform="translate(-230.48 -359.52)"/></g><g transform="translate(21.289)"><path class="a" d="M299.006,366.832a3.656,3.656,0,1,1,3.656-3.656A3.659,3.659,0,0,1,299.006,366.832Zm0-5.014a1.359,1.359,0,1,0,1.359,1.359A1.359,1.359,0,0,0,299.006,361.817Z" transform="translate(-295.35 -359.52)"/></g><g transform="translate(31.933)"><path class="a" d="M363.876,366.832a3.656,3.656,0,1,1,3.656-3.656A3.659,3.659,0,0,1,363.876,366.832Zm0-5.014a1.359,1.359,0,1,0,1.359,1.359A1.359,1.359,0,0,0,363.876,361.817Z" transform="translate(-360.22 -359.52)"/></g><g transform="translate(42.577)"><path class="a" d="M428.746,366.832a3.656,3.656,0,1,1,3.656-3.656A3.659,3.659,0,0,1,428.746,366.832Zm0-5.014a1.359,1.359,0,1,0,1.359,1.359A1.359,1.359,0,0,0,428.746,361.817Z" transform="translate(-425.09 -359.52)"/></g></g><g transform="translate(0 2.986)"><path class="a" d="M19.382,104.337a3.6,3.6,0,0,0-1.588,6.819,3.594,3.594,0,0,0,3.177,0l.021-.01.044-.025a3.6,3.6,0,0,0,1.872-2.5,3.376,3.376,0,0,0,.069-.694A3.6,3.6,0,0,0,19.382,104.337Zm0,9.488a5.894,5.894,0,0,1-5.892-5.892,5.892,5.892,0,1,1,11.785,0,5.7,5.7,0,0,1-.113,1.144,5.921,5.921,0,0,1-3.039,4.071q-.074.042-.153.079A5.81,5.81,0,0,1,19.382,113.825Z" transform="translate(-13.49 -102.04)"/></g></g></g></svg>