<svg xmlns="http://www.w3.org/2000/svg" width="51.419" height="57.027" viewBox="0 0 51.419 57.027"><defs><style>.a{fill:#35b3a6;}</style></defs><g transform="translate(-18.502 -6.6)"><path class="a" d="M74,25.147v.094a1.069,1.069,0,0,0,.117.47l.517,2.676h0a11.458,11.458,0,0,0,22.491-.023l1.6-8.17a11.917,11.917,0,0,0-2.864-9.508A12.219,12.219,0,0,0,86.8,6.6H84.918a12,12,0,0,0-11.88,13.687ZM85.857,35.383a9.158,9.158,0,0,1-8.992-7.419L76.3,25.03c.164-1.409.939-4.672,2.864-5.846,1.15-.7,2.723-.634,4.672.188A19.538,19.538,0,0,0,94.8,21.062a3.719,3.719,0,0,1,.681,3.522,2.068,2.068,0,0,0-.047.4v.047l-.563,2.958A9.2,9.2,0,0,1,85.857,35.383ZM77.593,12.211a9.734,9.734,0,0,1,7.325-3.334H86.8a9.771,9.771,0,0,1,7.325,3.334,9.653,9.653,0,0,1,2.348,7.325,5.072,5.072,0,0,0-.634-.587,1.118,1.118,0,0,0-.939-.211c-2.066.446-5.517.54-10.166-1.456-2.676-1.127-4.954-1.15-6.762-.047a7.2,7.2,0,0,0-2.606,3.029l-.07-.352A9.782,9.782,0,0,1,77.593,12.211Z" transform="translate(-41.648 0)"/><path class="a" d="M69.893,170.561l-3.381-15.918A3.928,3.928,0,0,0,64,151.779l-9.908-3.522a1.131,1.131,0,0,0-1.174.258l-8.71,8.71-8.71-8.71a1.1,1.1,0,0,0-1.174-.258l-9.908,3.522a3.928,3.928,0,0,0-2.512,2.864l-3.381,15.941a1.2,1.2,0,0,0,.235.963,1.161,1.161,0,0,0,.892.423H68.814a1.2,1.2,0,0,0,.892-.423A1.308,1.308,0,0,0,69.893,170.561Zm-48.857-.892,3.1-14.556a1.625,1.625,0,0,1,1.033-1.2l9.227-3.287,8.992,8.992a1.148,1.148,0,0,0,1.62,0L54,150.629l9.227,3.287a1.654,1.654,0,0,1,1.056,1.2h0l3.1,14.556Z" transform="translate(0 -108.343)"/></g></svg>