<svg xmlns="http://www.w3.org/2000/svg" width="34" height="34" viewBox="0 0 34 34"><defs><style>.a{fill:none;stroke:#35b3a6;stroke-linecap:round;stroke-linejoin:round;}</style></defs><g transform="translate(-0.5 -0.5)"><path class="a" d="M34,19.652v-4.3H30.062a12.978,12.978,0,0,0-1.98-4.792l2.783-2.776L27.221,4.135,24.444,6.918a12.978,12.978,0,0,0-4.792-1.98V1h-4.3V4.938a12.978,12.978,0,0,0-4.792,1.98L7.779,4.135,4.135,7.779l2.783,2.776a12.978,12.978,0,0,0-1.98,4.792H1v4.3H4.938a12.978,12.978,0,0,0,1.98,4.792L4.135,27.221l3.644,3.644,2.776-2.783a12.978,12.978,0,0,0,4.792,1.98V34h4.3V30.062a12.978,12.978,0,0,0,4.792-1.98l2.776,2.783,3.644-3.644-2.783-2.776a12.978,12.978,0,0,0,1.98-4.792Z"/><circle class="a" cx="6.457" cy="6.457" r="6.457" transform="translate(11.043 11.043)"/></g></svg>