<svg xmlns="http://www.w3.org/2000/svg" xmlns:xlink="http://www.w3.org/1999/xlink" width="31" height="31" viewBox="0 0 31 31"><defs><style>.a{fill:#7a91aa;}.b{clip-path:url(#a);}</style><clipPath id="a"><path class="a" d="M0,0H31V31H0Z"/></clipPath></defs><g class="b"><path class="a" d="M30.417,14.583a2.591,2.591,0,0,1-2.583,2.583,2.2,2.2,0,0,1-.659-.09l-4.6,4.585a2.282,2.282,0,0,1,.09.672,2.583,2.583,0,1,1-5.167,0,2.282,2.282,0,0,1,.09-.672L14.3,18.368a2.54,2.54,0,0,1-1.343,0l-5.877,5.89a2.2,2.2,0,0,1,.09.659,2.583,2.583,0,1,1-2.583-2.583,2.2,2.2,0,0,1,.659.09l5.89-5.877a2.282,2.282,0,0,1-.09-.672,2.583,2.583,0,1,1,5.167,0,2.282,2.282,0,0,1-.09.672l3.294,3.294a2.54,2.54,0,0,1,1.343,0l4.585-4.6a2.2,2.2,0,0,1-.09-.659,2.583,2.583,0,1,1,5.167,0Z" transform="translate(-0.708 -4.25)"/></g></svg>