<svg xmlns="http://www.w3.org/2000/svg" width="33.5" height="33.486" viewBox="0 0 33.5 33.486"><defs><style>.a{fill:#35b3a6;}.b{fill:none;stroke:#35b3a6;stroke-miterlimit:10;}</style></defs><g transform="translate(0.5)"><path class="a" d="M14.546,1.674a8.371,8.371,0,1,1-8.371,8.371,8.371,8.371,0,0,1,8.371-8.371m0-1.674A10.046,10.046,0,1,0,24.591,10.046,10.046,10.046,0,0,0,14.546,0Z" transform="translate(2.197)"/><path class="b" d="M.5,24.046C.5,18.5,8,14,17.243,14" transform="translate(-0.5 9.44)"/><path class="a" d="M23.864,18.628a.871.871,0,0,1,.335-.687A12.875,12.875,0,0,0,25.756,16.6l-.6-1.457-2.043.218a.887.887,0,0,1-.72-.251h0a.871.871,0,0,1-.251-.72,12.942,12.942,0,0,0,.167-2.059l-1.457-.6A12.339,12.339,0,0,0,19.561,13.3a.871.871,0,0,1-.7.352h0a.887.887,0,0,1-.67-.318l-1.339-1.591-1.473.6.218,2.043a.887.887,0,0,1-.251.72h0a.871.871,0,0,1-.72.251,12.758,12.758,0,0,0-2.059-.167l-.6,1.457a12.171,12.171,0,0,0,1.574,1.289.871.871,0,0,1,.352.7h0a.871.871,0,0,1-.335.687,13.394,13.394,0,0,0-1.574,1.339l.6,1.457a12.172,12.172,0,0,0,2.026-.2.887.887,0,0,1,1,.971,13.076,13.076,0,0,0-.167,2.059l1.457.6a12.658,12.658,0,0,0,1.289-1.574.871.871,0,0,1,.7-.352h0a.871.871,0,0,1,.7.335,12.775,12.775,0,0,0,1.339,1.557l1.457-.6a12.357,12.357,0,0,0-.2-2.026.871.871,0,0,1,.218-.67h0a.871.871,0,0,1,.72-.251,12.74,12.74,0,0,0,2.043.167l.6-1.457A12.139,12.139,0,0,0,24.2,19.4a.887.887,0,0,1-.352-.7Zm-3.683,3.2a3.449,3.449,0,1,1,1.881-1.859,3.449,3.449,0,0,1-1.881,1.859Z" transform="translate(7.227 7.909)"/></g></svg>